<svg id="visual" viewBox="0 0 960 540" width="960" height="540" xmlns="http://www.w3.org/2000/svg" xmlns:xlink="http://www.w3.org/1999/xlink" version="1.1"><path d="M0 44L160 44L320 28L480 39L640 39L800 44L960 39L960 0L800 0L640 0L480 0L320 0L160 0L0 0Z" fill="#c0f3e3"></path><path d="M0 66L160 71L320 60L480 66L640 71L800 71L960 71L960 37L800 42L640 37L480 37L320 26L160 42L0 42Z" fill="#b8eccf"></path><path d="M0 109L160 114L320 109L480 114L640 120L800 131L960 125L960 69L800 69L640 69L480 64L320 58L160 69L0 64Z" fill="#b6e4b9"></path><path d="M0 131L160 141L320 131L480 136L640 141L800 152L960 152L960 123L800 129L640 118L480 112L320 107L160 112L0 107Z" fill="#b9dba2"></path><path d="M0 212L160 212L320 190L480 195L640 212L800 228L960 206L960 150L800 150L640 139L480 134L320 129L160 139L0 129Z" fill="#c0d18a"></path><path d="M0 233L160 239L320 217L480 217L640 233L800 249L960 228L960 204L800 226L640 210L480 193L320 188L160 210L0 210Z" fill="#cac575"></path><path d="M0 260L160 266L320 255L480 249L640 260L800 282L960 266L960 226L800 247L640 231L480 215L320 215L160 237L0 231Z" fill="#d6b763"></path><path d="M0 287L160 293L320 282L480 271L640 287L800 303L960 293L960 264L800 280L640 258L480 247L320 253L160 264L0 258Z" fill="#e2a857"></path><path d="M0 406L160 379L320 379L480 363L640 384L800 406L960 379L960 291L800 301L640 285L480 269L320 280L160 291L0 285Z" fill="#ee9753"></path><path d="M0 503L160 509L320 509L480 503L640 509L800 509L960 509L960 377L800 404L640 382L480 361L320 377L160 377L0 404Z" fill="#f88457"></path><path d="M0 541L160 541L320 541L480 541L640 541L800 541L960 541L960 507L800 507L640 507L480 501L320 507L160 507L0 501Z" fill="#ff6f61"></path></svg>